<svg width="21" height="21" viewBox="0 0 21 21" fill="none" xmlns="http://www.w3.org/2000/svg">
<path d="M10.5 3.9375C10.5 3.78379 10.455 3.63346 10.3705 3.50503C10.2861 3.3766 10.1659 3.27569 10.0248 3.21474C9.88368 3.15379 9.72783 3.13546 9.57643 3.16202C9.42504 3.18858 9.28473 3.25886 9.1728 3.3642L4.93815 7.35H3.32535C3.16627 7.34994 3.0109 7.39806 2.8797 7.48802C2.7485 7.57799 2.64762 7.70558 2.59035 7.854C2.2651 8.69821 2.09886 9.5953 2.1 10.5C2.1 11.4313 2.27325 12.3238 2.5914 13.146C2.70795 13.4505 3.0009 13.65 3.3264 13.65H4.93815L9.1728 17.6358C9.28473 17.7411 9.42504 17.8114 9.57643 17.838C9.72783 17.8645 9.88368 17.8462 10.0248 17.7853C10.1659 17.7243 10.2861 17.6234 10.3705 17.495C10.455 17.3665 10.5 17.2162 10.5 17.0625V3.9375ZM16.7475 5.3025C16.5989 5.15912 16.3999 5.07983 16.1935 5.08172C15.987 5.08361 15.7895 5.16653 15.6436 5.31261C15.4976 5.45869 15.4149 5.65624 15.4132 5.86272C15.4115 6.0692 15.491 6.26809 15.6345 6.41655C16.7175 7.49956 17.3259 8.96842 17.3259 10.5C17.3259 12.0316 16.7175 13.5004 15.6345 14.5834C15.4954 14.7327 15.4197 14.9302 15.4233 15.1342C15.4269 15.3382 15.5095 15.5329 15.6538 15.6772C15.7981 15.8214 15.9927 15.9041 16.1968 15.9077C16.4008 15.9113 16.5982 15.8356 16.7475 15.6964C18.1257 14.3181 18.9 12.4487 18.9 10.4995C18.9 8.55026 18.1257 6.68087 16.7475 5.3025Z" fill="white"/>
<path d="M14.5205 7.5306C14.372 7.38708 14.1731 7.30761 13.9666 7.30931C13.7601 7.311 13.5626 7.39373 13.4165 7.53967C13.2704 7.68561 13.1875 7.88309 13.1856 8.08957C13.1837 8.29605 13.263 8.49501 13.4064 8.6436C13.6502 8.88737 13.8436 9.17677 13.9756 9.4953C14.1076 9.81382 14.1755 10.1552 14.1755 10.5C14.1755 10.8448 14.1076 11.1862 13.9756 11.5047C13.8436 11.8232 13.6502 12.1126 13.4064 12.3564C13.2673 12.5057 13.1916 12.7031 13.1952 12.9072C13.1988 13.1112 13.2814 13.3058 13.4257 13.4501C13.57 13.5944 13.7646 13.677 13.9687 13.6806C14.1727 13.6842 14.3701 13.6085 14.5194 13.4694C15.3068 12.6818 15.7491 11.6137 15.7491 10.5C15.7491 9.38631 15.3068 8.31822 14.5194 7.5306H14.5205Z" fill="white"/>
</svg>
